<?xml version="1.0" encoding="UTF-8" standalone="no"?>
<svg
   xmlns:dc="http://purl.org/dc/elements/1.1/"
   xmlns:cc="http://creativecommons.org/ns#"
   xmlns:rdf="http://www.w3.org/1999/02/22-rdf-syntax-ns#"
   xmlns:svg="http://www.w3.org/2000/svg"
   xmlns="http://www.w3.org/2000/svg"
   xmlns:sodipodi="http://sodipodi.sourceforge.net/DTD/sodipodi-0.dtd"
   xmlns:inkscape="http://www.inkscape.org/namespaces/inkscape"
   width="210mm"
   height="297mm"
   viewBox="0 0 210 297"
   version="1.1"
   id="svg141"
   inkscape:version="1.0.2-2 (e86c870879, 2021-01-15)"
   sodipodi:docname="lgw2.svg">
  <defs
     id="defs135" />
  <sodipodi:namedview
     id="base"
     pagecolor="#ffffff"
     bordercolor="#666666"
     borderopacity="1.0"
     inkscape:pageopacity="0.0"
     inkscape:pageshadow="2"
     inkscape:zoom="0.7"
     inkscape:cx="613.38058"
     inkscape:cy="557.87412"
     inkscape:document-units="mm"
     inkscape:current-layer="g1074"
     inkscape:document-rotation="0"
     showgrid="false"
     inkscape:window-width="1500"
     inkscape:window-height="1050"
     inkscape:window-x="1732"
     inkscape:window-y="52"
     inkscape:window-maximized="0" />
  <metadata
     id="metadata138">
    <rdf:RDF>
      <cc:Work
         rdf:about="">
        <dc:format>image/svg+xml</dc:format>
        <dc:type
           rdf:resource="http://purl.org/dc/dcmitype/StillImage" />
        <dc:title></dc:title>
      </cc:Work>
    </rdf:RDF>
  </metadata>
  <g
     inkscape:label="Слой 1"
     inkscape:groupmode="layer"
     id="layer1">
    <g
       id="g1093"
       transform="matrix(0.26458333,0,0,0.26458333,34.78515,120.94104)">
      <g
         id="g1074"
         transform="matrix(7.9468294,0,0,6.1894624,-364.8592,-387.47519)">
        <path
           class="st0"
           d="m 74.021289,70.060987 c 4.706465,0 9.125951,1.03809 12.799289,2.85474 l 1.83667,-1.98967 c -4.247298,-2.07617 -9.240743,-3.28727 -14.635959,-3.28727 -5.165632,0 -9.986889,1.12459 -14.119394,3.02775 l 1.836669,1.98967 c 3.615942,-1.68689 7.805844,-2.59522 12.282725,-2.59522"
           id="path12"
           style="fill:#009fe3;stroke-width:0.498255" />
        <path
           class="st0"
           d="m 57.433871,68.028057 2.468024,2.63848 c 5.050841,-2.42221 11.020016,-3.80632 17.390962,-3.80632 6.657927,0 12.799289,1.51387 17.964922,4.06584 l 2.468023,-2.63847 c -5.854382,-2.94125 -12.91408,-4.6714 -20.432945,-4.6714 -7.289281,0 -14.119394,1.64364 -19.858986,4.41187"
           id="path14"
           style="fill:#009fe3;stroke-width:0.498255" />
        <path
           class="st0"
           d="m 80.105257,63.010637 c 8.609388,0 16.587423,1.94641 23.302743,5.3202 l 3.09938,-3.33053 c -7.51887,-3.849578 -16.644817,-6.055515 -26.402123,-6.055515 -9.470325,0 -18.366692,2.11943 -25.770765,5.752735 l 3.099379,3.33053 c 6.543135,-3.15751 14.291583,-5.01742 22.671386,-5.01742"
           id="path16"
           style="fill:#009fe3;stroke-width:0.498255" />
      </g>
      <path
         style="fill:#2c5aa0;stroke-width:0.711793"
         d="m 442.63942,182.7286 c -35.12281,-13.03088 -79.69268,-22.45116 -125.97179,-26.62536 -18.40493,-1.66005 -57.89136,-2.28223 -77.21231,-1.21662 -50.29811,2.77412 -99.7353,12.14923 -140.726439,26.6869 l -8.766818,3.10919 -9.582374,-7.47942 c -5.270305,-4.11368 -10.696942,-8.53993 -12.059192,-9.83611 l -2.476819,-2.35669 14.109047,-4.7053 c 47.490085,-15.83772 89.684445,-24.20605 144.479755,-28.65441 18.6527,-1.51425 70.64178,-1.5204 89.78361,-0.0106 57.3681,4.52482 103.97762,14.21785 154.10212,32.04746 l 9.38243,3.33739 -11.74289,9.70734 c -6.4586,5.33904 -12.15659,9.68515 -12.6622,9.65802 -0.50561,-0.0271 -5.30087,-1.67492 -10.65613,-3.66177 z"
         id="path224" />
      <path
         style="fill:#2c5aa0;stroke-width:0.711793"
         d="m 382.44442,199.37998 c -6.65451,-2.58717 -24.47935,-7.9895 -35.34248,-10.71156 -38.09904,-9.54676 -81.81779,-13.59801 -123.40122,-11.43513 -37.33951,1.94215 -71.90084,8.17064 -104.93248,18.91049 l -10.22924,3.32591 -6.84434,-5.09993 c -3.764387,-2.80497 -7.944197,-6.13204 -9.288467,-7.3935 l -2.44413,-2.29355 6.39863,-2.42189 c 21.432567,-8.11224 56.205877,-16.35143 85.113037,-20.16669 27.53204,-3.63378 28.96866,-3.71691 63.95544,-3.70076 34.05796,0.0157 36.69257,0.15137 60.31036,3.10553 32.07594,4.01213 59.91247,10.38046 88.33903,20.20985 l 12.53906,4.33579 -1.51803,1.30368 c -6.56035,5.63403 -16.91033,13.96534 -17.31903,13.94111 -0.27581,-0.0163 -2.67708,-0.87555 -5.33614,-1.90935 z"
         id="path226" />
      <path
         style="fill:#2c5aa0;stroke-width:0.711793"
         d="m 315.54328,210.62146 c -15.26797,-5.99035 -42.42271,-11.85676 -65.67316,-14.1878 -14.80388,-1.4842 -46.79257,-1.47608 -61.41779,0.0156 -20.65022,2.10618 -37.57551,5.41825 -56.391,11.035 l -10.47428,3.12676 -4.37148,-3.6416 c -2.40432,-2.00289 -5.34013,-4.50968 -6.52403,-5.57066 l -2.15254,-1.92907 4.84656,-1.63909 c 22.93165,-7.7554 52.43182,-13.51237 81.12061,-15.83072 12.53446,-1.01292 38.75547,-0.85452 52.16201,0.31511 22.33394,1.94847 46.77883,6.21354 63.49302,11.07806 11.00877,3.20401 23.01082,7.26497 23.01082,7.78585 0,0.64287 -12.23387,11.11476 -12.94409,11.07983 -0.32172,-0.0158 -2.42982,-0.7526 -4.68465,-1.63728 z"
         id="path228" />
    </g>
  </g>
  <style
     type="text/css"
     id="style2">
	.st0{fill:#FFFFFF;}
	.st1{fill-rule:evenodd;clip-rule:evenodd;fill:#FFFFFF;}
</style>
</svg>
